<?xml version="1.0" encoding="UTF-8" standalone="no"?>

<svg
   xmlns:dc="http://purl.org/dc/elements/1.1/"
   xmlns:cc="http://creativecommons.org/ns#"
   xmlns:rdf="http://www.w3.org/1999/02/22-rdf-syntax-ns#"
   xmlns:svg="http://www.w3.org/2000/svg"
   xmlns="http://www.w3.org/2000/svg"
   version="1.1"
   width="69"
   height="69"
   id="svg2">
  
  <g
     transform="translate(-65.491147,-917.86719)"
     id="layer1">
    <path
       d="m 99.994249,917.86015 c -13.568656,-0.18804 -26.653383,8.53415 -31.793775,21.07533 -5.366262,12.31866 -2.590619,27.62286 6.816901,37.23106 9.051415,9.7359 23.958529,13.2868 36.441525,8.7437 12.93725,-4.3928 22.47354,-17.1023 22.9848,-30.7689 0.85835,-13.2876 -6.83851,-26.57189 -18.74395,-32.50593 -4.83628,-2.48631 -10.26877,-3.78356 -15.705501,-3.77526 z m -12.867292,14.34238 c 3.472126,0 6.944253,0 10.416379,0 -6.321711,8.19341 -11.334421,18.12121 -11.26576,28.68291 -0.01217,2.6642 1.115983,7.5612 4.725248,6.2353 2.884689,-2.1184 1.783245,-6.3887 1.858249,-9.4789 -0.119073,-5.0901 -1.357342,-10.3944 0.327267,-15.3394 1.077366,-3.7336 6.048439,-6.02835 9.13432,-3.12842 3.62579,3.10142 2.80482,8.16902 3.2369,12.39662 0.54009,3.3485 0.97283,7.6521 4.20176,9.5203 3.73198,-0.6679 1.89839,-6.3271 1.28899,-8.9053 -0.82533,-3.3759 -2.92128,-6.2809 -3.82223,-9.5985 -0.34133,-3.83915 3.87017,-5.52999 6.90851,-6.36844 3.91409,-1.05232 7.98167,-1.42701 12.02342,-1.50853 0,2.51142 0,5.02287 0,7.53427 -3.60579,-0.3627 -7.47428,-1.2831 -10.97433,0.01 -0.38958,2.954 3.16497,6.2308 3.35413,9.7577 1.43064,5.3192 0.56933,12.3768 -4.89594,15.0369 -4.57783,2.303 -10.00276,-0.9392 -11.72379,-5.4022 -0.88791,-1.2966 -1.51486,-5.7158 -1.5661,-5.19 -0.0877,5.6766 -0.529741,12.1534 -4.826615,16.3737 -4.410382,3.9438 -12.202426,2.0619 -14.452345,-3.4006 -3.320966,-7.3984 -2.248826,-15.8885 -0.309971,-23.5121 1.355797,-4.8647 3.304064,-9.65459 6.361908,-13.71071 z"
       id="path2999"
       style="fill:#f6f6f6;fill-opacity:1;stroke:none" />
  </g>
</svg>
